<mxfile host="app.diagrams.net" modified="2022-10-09T08:14:57.985Z" agent="5.0 (Macintosh; Intel Mac OS X 10_15_7) AppleWebKit/537.36 (KHTML, like Gecko) Chrome/105.0.0.0 Safari/537.36" etag="WFzE2MwvoAnAzIDdb8Si" version="20.4.0" type="github">
  <diagram id="sPJugvbC0ONJ9PqJ7Bom" name="第 1 页">
    <mxGraphModel dx="702" dy="395" grid="0" gridSize="10" guides="1" tooltips="1" connect="1" arrows="1" fold="1" page="1" pageScale="1" pageWidth="827" pageHeight="1169" math="0" shadow="0">
      <root>
        <mxCell id="0" />
        <mxCell id="1" parent="0" />
        <mxCell id="6XPgIttAEbWycJ4cvZvO-1" value="" style="rounded=1;whiteSpace=wrap;html=1;fillColor=#f8cecc;strokeColor=#b85450;" parent="1" vertex="1">
          <mxGeometry x="175" y="298" width="10" height="10" as="geometry" />
        </mxCell>
        <mxCell id="6XPgIttAEbWycJ4cvZvO-5" value="" style="rounded=1;whiteSpace=wrap;html=1;fillColor=#fff2cc;strokeColor=#d6b656;" parent="1" vertex="1">
          <mxGeometry x="192.5" y="298" width="10" height="10" as="geometry" />
        </mxCell>
        <mxCell id="6XPgIttAEbWycJ4cvZvO-9" value="" style="endArrow=classic;html=1;rounded=0;strokeWidth=1;" parent="1" edge="1">
          <mxGeometry width="50" height="50" relative="1" as="geometry">
            <mxPoint x="135" y="308" as="sourcePoint" />
            <mxPoint x="492" y="306" as="targetPoint" />
          </mxGeometry>
        </mxCell>
        <mxCell id="6XPgIttAEbWycJ4cvZvO-10" value="" style="rounded=1;whiteSpace=wrap;html=1;fillColor=#f8cecc;strokeColor=#b85450;" parent="1" vertex="1">
          <mxGeometry x="223" y="336" width="10" height="10" as="geometry" />
        </mxCell>
        <mxCell id="6XPgIttAEbWycJ4cvZvO-11" value="" style="rounded=1;whiteSpace=wrap;html=1;fillColor=#fff2cc;strokeColor=#d6b656;" parent="1" vertex="1">
          <mxGeometry x="203" y="336" width="10" height="10" as="geometry" />
        </mxCell>
        <mxCell id="6XPgIttAEbWycJ4cvZvO-12" value="" style="endArrow=classic;html=1;rounded=0;strokeWidth=1;" parent="1" edge="1">
          <mxGeometry width="50" height="50" relative="1" as="geometry">
            <mxPoint x="135" y="346" as="sourcePoint" />
            <mxPoint x="490" y="345" as="targetPoint" />
          </mxGeometry>
        </mxCell>
        <mxCell id="6XPgIttAEbWycJ4cvZvO-15" value="" style="rounded=1;whiteSpace=wrap;html=1;fillColor=#dae8fc;strokeColor=#6c8ebf;" parent="1" vertex="1">
          <mxGeometry x="210" y="298" width="10" height="10" as="geometry" />
        </mxCell>
        <mxCell id="6XPgIttAEbWycJ4cvZvO-16" value="" style="rounded=1;whiteSpace=wrap;html=1;fillColor=#dae8fc;strokeColor=#6c8ebf;" parent="1" vertex="1">
          <mxGeometry x="243" y="336" width="10" height="10" as="geometry" />
        </mxCell>
        <mxCell id="6XPgIttAEbWycJ4cvZvO-17" value="" style="endArrow=classic;html=1;rounded=1;strokeWidth=0.3;exitX=0.5;exitY=1;exitDx=0;exitDy=0;" parent="1" source="6XPgIttAEbWycJ4cvZvO-1" edge="1">
          <mxGeometry width="50" height="50" relative="1" as="geometry">
            <mxPoint x="253" y="360" as="sourcePoint" />
            <mxPoint x="228" y="335" as="targetPoint" />
          </mxGeometry>
        </mxCell>
        <mxCell id="6XPgIttAEbWycJ4cvZvO-18" value="" style="rounded=1;whiteSpace=wrap;html=1;fillColor=#f5f5f5;strokeColor=#666666;fontColor=#333333;" parent="1" vertex="1">
          <mxGeometry x="227" y="298" width="10" height="10" as="geometry" />
        </mxCell>
        <mxCell id="6XPgIttAEbWycJ4cvZvO-19" value="" style="rounded=1;whiteSpace=wrap;html=1;fillColor=#f5f5f5;strokeColor=#666666;fontColor=#333333;" parent="1" vertex="1">
          <mxGeometry x="289" y="336" width="10" height="10" as="geometry" />
        </mxCell>
        <mxCell id="6XPgIttAEbWycJ4cvZvO-20" value="02 03 04 05" style="text;html=1;align=center;verticalAlign=middle;resizable=0;points=[];autosize=1;strokeColor=none;fillColor=none;" parent="1" vertex="1">
          <mxGeometry x="165" y="275" width="81" height="26" as="geometry" />
        </mxCell>
        <mxCell id="6XPgIttAEbWycJ4cvZvO-21" value="产生日志的时间轴" style="text;html=1;align=center;verticalAlign=middle;resizable=0;points=[];autosize=1;strokeColor=none;fillColor=none;" parent="1" vertex="1">
          <mxGeometry x="502" y="282" width="114" height="26" as="geometry" />
        </mxCell>
        <mxCell id="6XPgIttAEbWycJ4cvZvO-22" value="日志到达计算任务的时间轴" style="text;html=1;align=center;verticalAlign=middle;resizable=0;points=[];autosize=1;strokeColor=none;fillColor=none;" parent="1" vertex="1">
          <mxGeometry x="502" y="320" width="162" height="26" as="geometry" />
        </mxCell>
        <mxCell id="6XPgIttAEbWycJ4cvZvO-24" value="" style="endArrow=classic;html=1;rounded=1;strokeWidth=0.3;exitX=0.5;exitY=1;exitDx=0;exitDy=0;entryX=0.75;entryY=0;entryDx=0;entryDy=0;" parent="1" source="6XPgIttAEbWycJ4cvZvO-5" target="6XPgIttAEbWycJ4cvZvO-11" edge="1">
          <mxGeometry width="50" height="50" relative="1" as="geometry">
            <mxPoint x="190" y="318" as="sourcePoint" />
            <mxPoint x="209" y="334" as="targetPoint" />
          </mxGeometry>
        </mxCell>
        <mxCell id="6XPgIttAEbWycJ4cvZvO-25" value="" style="endArrow=classic;html=1;rounded=1;strokeWidth=0.3;exitX=0.5;exitY=1;exitDx=0;exitDy=0;" parent="1" edge="1">
          <mxGeometry width="50" height="50" relative="1" as="geometry">
            <mxPoint x="215" y="308" as="sourcePoint" />
            <mxPoint x="250" y="335" as="targetPoint" />
          </mxGeometry>
        </mxCell>
        <mxCell id="6XPgIttAEbWycJ4cvZvO-26" value="" style="endArrow=classic;html=1;rounded=1;strokeWidth=0.3;exitX=0.5;exitY=1;exitDx=0;exitDy=0;entryX=0.5;entryY=0;entryDx=0;entryDy=0;" parent="1" target="6XPgIttAEbWycJ4cvZvO-19" edge="1">
          <mxGeometry width="50" height="50" relative="1" as="geometry">
            <mxPoint x="233" y="308" as="sourcePoint" />
            <mxPoint x="293.5" y="334" as="targetPoint" />
          </mxGeometry>
        </mxCell>
        <mxCell id="6XPgIttAEbWycJ4cvZvO-29" value="" style="rounded=0;whiteSpace=wrap;html=1;" parent="1" vertex="1">
          <mxGeometry x="160" y="346" width="120" height="60" as="geometry" />
        </mxCell>
        <mxCell id="6XPgIttAEbWycJ4cvZvO-31" value="" style="endArrow=none;dashed=1;html=1;dashPattern=1 3;strokeWidth=2;rounded=1;" parent="1" edge="1">
          <mxGeometry width="50" height="50" relative="1" as="geometry">
            <mxPoint x="237" y="405" as="sourcePoint" />
            <mxPoint x="238" y="347" as="targetPoint" />
          </mxGeometry>
        </mxCell>
        <mxCell id="6XPgIttAEbWycJ4cvZvO-32" value="00" style="text;html=1;align=center;verticalAlign=middle;resizable=0;points=[];autosize=1;strokeColor=none;fillColor=none;" parent="1" vertex="1">
          <mxGeometry x="147" y="405" width="31" height="26" as="geometry" />
        </mxCell>
        <mxCell id="6XPgIttAEbWycJ4cvZvO-33" value="08" style="text;html=1;align=center;verticalAlign=middle;resizable=0;points=[];autosize=1;strokeColor=none;fillColor=none;" parent="1" vertex="1">
          <mxGeometry x="262" y="405" width="31" height="26" as="geometry" />
        </mxCell>
        <mxCell id="6XPgIttAEbWycJ4cvZvO-34" value="" style="curved=1;endArrow=classic;html=1;rounded=1;dashed=1;strokeWidth=0.3;exitX=0.5;exitY=1;exitDx=0;exitDy=0;" parent="1" source="6XPgIttAEbWycJ4cvZvO-19" target="6XPgIttAEbWycJ4cvZvO-35" edge="1">
          <mxGeometry width="50" height="50" relative="1" as="geometry">
            <mxPoint x="344" y="311" as="sourcePoint" />
            <mxPoint x="368" y="471" as="targetPoint" />
            <Array as="points">
              <mxPoint x="294" y="311" />
              <mxPoint x="344" y="361" />
            </Array>
          </mxGeometry>
        </mxCell>
        <mxCell id="6XPgIttAEbWycJ4cvZvO-35" value="count 推送展示" style="text;html=1;align=center;verticalAlign=middle;resizable=0;points=[];autosize=1;strokeColor=none;fillColor=none;" parent="1" vertex="1">
          <mxGeometry x="332" y="423" width="99" height="26" as="geometry" />
        </mxCell>
        <mxCell id="6XPgIttAEbWycJ4cvZvO-36" value="05" style="text;html=1;align=center;verticalAlign=middle;resizable=0;points=[];autosize=1;strokeColor=none;fillColor=none;" parent="1" vertex="1">
          <mxGeometry x="223" y="405" width="31" height="26" as="geometry" />
        </mxCell>
        <mxCell id="6XPgIttAEbWycJ4cvZvO-37" value="2020.10.1 的10点" style="text;html=1;align=center;verticalAlign=middle;resizable=0;points=[];autosize=1;strokeColor=none;fillColor=none;" parent="1" vertex="1">
          <mxGeometry x="21" y="282" width="112" height="26" as="geometry" />
        </mxCell>
        <mxCell id="6XPgIttAEbWycJ4cvZvO-38" value="2022年的某天某刻" style="text;html=1;align=center;verticalAlign=middle;resizable=0;points=[];autosize=1;strokeColor=none;fillColor=none;" parent="1" vertex="1">
          <mxGeometry x="18.5" y="320" width="117" height="26" as="geometry" />
        </mxCell>
        <mxCell id="6XPgIttAEbWycJ4cvZvO-42" value="" style="edgeStyle=orthogonalEdgeStyle;rounded=1;orthogonalLoop=1;jettySize=auto;html=1;dashed=1;strokeWidth=0.3;" parent="1" source="6XPgIttAEbWycJ4cvZvO-39" target="6XPgIttAEbWycJ4cvZvO-40" edge="1">
          <mxGeometry relative="1" as="geometry" />
        </mxCell>
        <mxCell id="6XPgIttAEbWycJ4cvZvO-44" value="其他算子" style="edgeLabel;html=1;align=center;verticalAlign=middle;resizable=0;points=[];" parent="6XPgIttAEbWycJ4cvZvO-42" vertex="1" connectable="0">
          <mxGeometry x="-0.0643" relative="1" as="geometry">
            <mxPoint as="offset" />
          </mxGeometry>
        </mxCell>
        <mxCell id="6XPgIttAEbWycJ4cvZvO-39" value="数据源" style="rounded=1;whiteSpace=wrap;html=1;fillColor=#cce5ff;strokeColor=#36393d;" parent="1" vertex="1">
          <mxGeometry x="95" y="591" width="120" height="60" as="geometry" />
        </mxCell>
        <mxCell id="6XPgIttAEbWycJ4cvZvO-43" value="" style="edgeStyle=orthogonalEdgeStyle;rounded=1;orthogonalLoop=1;jettySize=auto;html=1;dashed=1;strokeWidth=0.3;" parent="1" source="6XPgIttAEbWycJ4cvZvO-40" target="6XPgIttAEbWycJ4cvZvO-41" edge="1">
          <mxGeometry relative="1" as="geometry" />
        </mxCell>
        <mxCell id="6XPgIttAEbWycJ4cvZvO-40" value="聚合窗口算子" style="rounded=1;whiteSpace=wrap;html=1;fillColor=#ffff88;strokeColor=#36393d;" parent="1" vertex="1">
          <mxGeometry x="280" y="591" width="120" height="60" as="geometry" />
        </mxCell>
        <mxCell id="6XPgIttAEbWycJ4cvZvO-41" value="输出源" style="rounded=1;whiteSpace=wrap;html=1;fillColor=#cdeb8b;strokeColor=#36393d;" parent="1" vertex="1">
          <mxGeometry x="468" y="591" width="120" height="60" as="geometry" />
        </mxCell>
        <mxCell id="oD4sQb2ByNEXu4j8s0dV-1" value="" style="rounded=1;whiteSpace=wrap;html=1;fillColor=#f8cecc;strokeColor=#b85450;" vertex="1" parent="1">
          <mxGeometry x="221.87" y="812" width="5" height="5" as="geometry" />
        </mxCell>
        <mxCell id="oD4sQb2ByNEXu4j8s0dV-2" value="" style="rounded=1;whiteSpace=wrap;html=1;fillColor=#fff2cc;strokeColor=#d6b656;" vertex="1" parent="1">
          <mxGeometry x="239.37" y="812" width="5" height="5" as="geometry" />
        </mxCell>
        <mxCell id="oD4sQb2ByNEXu4j8s0dV-3" value="" style="endArrow=classic;html=1;rounded=0;strokeWidth=1;" edge="1" parent="1">
          <mxGeometry width="50" height="50" relative="1" as="geometry">
            <mxPoint x="175" y="817" as="sourcePoint" />
            <mxPoint x="1347.75" y="817" as="targetPoint" />
            <Array as="points">
              <mxPoint x="761" y="816" />
            </Array>
          </mxGeometry>
        </mxCell>
        <mxCell id="oD4sQb2ByNEXu4j8s0dV-4" value="" style="rounded=1;whiteSpace=wrap;html=1;fillColor=#f8cecc;strokeColor=#b85450;" vertex="1" parent="1">
          <mxGeometry x="265.12" y="849" width="5" height="5" as="geometry" />
        </mxCell>
        <mxCell id="oD4sQb2ByNEXu4j8s0dV-5" value="" style="rounded=1;whiteSpace=wrap;html=1;fillColor=#fff2cc;strokeColor=#d6b656;" vertex="1" parent="1">
          <mxGeometry x="239.37" y="849" width="5" height="5" as="geometry" />
        </mxCell>
        <mxCell id="oD4sQb2ByNEXu4j8s0dV-7" value="" style="rounded=1;whiteSpace=wrap;html=1;fillColor=#dae8fc;strokeColor=#6c8ebf;" vertex="1" parent="1">
          <mxGeometry x="256.87" y="812" width="5" height="5" as="geometry" />
        </mxCell>
        <mxCell id="oD4sQb2ByNEXu4j8s0dV-8" value="" style="rounded=1;whiteSpace=wrap;html=1;fillColor=#dae8fc;strokeColor=#6c8ebf;" vertex="1" parent="1">
          <mxGeometry x="284" y="849" width="5" height="5" as="geometry" />
        </mxCell>
        <mxCell id="oD4sQb2ByNEXu4j8s0dV-10" value="" style="rounded=1;whiteSpace=wrap;html=1;fillColor=#f5f5f5;strokeColor=#666666;fontColor=#333333;" vertex="1" parent="1">
          <mxGeometry x="273.87" y="812" width="5" height="5" as="geometry" />
        </mxCell>
        <mxCell id="oD4sQb2ByNEXu4j8s0dV-11" value="" style="rounded=1;whiteSpace=wrap;html=1;fillColor=#f5f5f5;strokeColor=#666666;fontColor=#333333;sketch=0;shadow=1;glass=0;" vertex="1" parent="1">
          <mxGeometry x="329.12" y="849" width="5" height="5" as="geometry" />
        </mxCell>
        <mxCell id="oD4sQb2ByNEXu4j8s0dV-12" value="01 02 03 04 05" style="text;html=1;align=center;verticalAlign=middle;resizable=0;points=[];autosize=1;strokeColor=none;fillColor=none;" vertex="1" parent="1">
          <mxGeometry x="192.5" y="791" width="98" height="26" as="geometry" />
        </mxCell>
        <mxCell id="oD4sQb2ByNEXu4j8s0dV-20" value="00" style="text;html=1;align=center;verticalAlign=middle;resizable=0;points=[];autosize=1;strokeColor=none;fillColor=none;" vertex="1" parent="1">
          <mxGeometry x="182" y="849" width="31" height="26" as="geometry" />
        </mxCell>
        <mxCell id="oD4sQb2ByNEXu4j8s0dV-21" value="08" style="text;html=1;align=center;verticalAlign=middle;resizable=0;points=[];autosize=1;strokeColor=none;fillColor=none;" vertex="1" parent="1">
          <mxGeometry x="312.25" y="849" width="31" height="26" as="geometry" />
        </mxCell>
        <mxCell id="oD4sQb2ByNEXu4j8s0dV-24" value="05" style="text;html=1;align=center;verticalAlign=middle;resizable=0;points=[];autosize=1;strokeColor=none;fillColor=none;" vertex="1" parent="1">
          <mxGeometry x="260.37" y="849" width="31" height="26" as="geometry" />
        </mxCell>
        <mxCell id="oD4sQb2ByNEXu4j8s0dV-25" value="&lt;font style=&quot;line-height: 0.8; font-size: 2px;&quot;&gt;2020.10.1 10:00&lt;/font&gt;" style="text;html=1;align=center;verticalAlign=middle;resizable=0;points=[];autosize=1;strokeColor=none;fillColor=none;fontSize=2;" vertex="1" parent="1">
          <mxGeometry x="70" y="791" width="105" height="26" as="geometry" />
        </mxCell>
        <mxCell id="oD4sQb2ByNEXu4j8s0dV-26" value="某段时间" style="text;html=1;align=center;verticalAlign=middle;resizable=0;points=[];autosize=1;strokeColor=none;fillColor=none;" vertex="1" parent="1">
          <mxGeometry x="89.5" y="828" width="66" height="26" as="geometry" />
        </mxCell>
        <mxCell id="oD4sQb2ByNEXu4j8s0dV-33" value="" style="rounded=1;whiteSpace=wrap;html=1;fillColor=#e1d5e7;strokeColor=#9673a6;arcSize=0;" vertex="1" parent="1">
          <mxGeometry x="202.5" y="812" width="5" height="5" as="geometry" />
        </mxCell>
        <mxCell id="oD4sQb2ByNEXu4j8s0dV-34" value="" style="rounded=1;whiteSpace=wrap;html=1;fillColor=#e1d5e7;strokeColor=#9673a6;" vertex="1" parent="1">
          <mxGeometry x="300.12" y="849" width="5" height="5" as="geometry" />
        </mxCell>
        <mxCell id="oD4sQb2ByNEXu4j8s0dV-50" value="" style="rounded=1;whiteSpace=wrap;html=1;fillColor=#1ba1e2;strokeColor=#006EAF;fontColor=#ffffff;" vertex="1" parent="1">
          <mxGeometry x="306.62" y="812" width="5" height="5" as="geometry" />
        </mxCell>
        <mxCell id="oD4sQb2ByNEXu4j8s0dV-51" value="" style="rounded=1;whiteSpace=wrap;html=1;fillColor=#0050ef;strokeColor=#001DBC;fontColor=#ffffff;" vertex="1" parent="1">
          <mxGeometry x="324.12" y="812" width="5" height="5" as="geometry" />
        </mxCell>
        <mxCell id="oD4sQb2ByNEXu4j8s0dV-52" value="" style="rounded=1;whiteSpace=wrap;html=1;fillColor=#6a00ff;strokeColor=#3700CC;fontColor=#ffffff;" vertex="1" parent="1">
          <mxGeometry x="341.62" y="812" width="5" height="5" as="geometry" />
        </mxCell>
        <mxCell id="oD4sQb2ByNEXu4j8s0dV-53" value="" style="rounded=1;whiteSpace=wrap;html=1;fillColor=#d80073;strokeColor=#A50040;fontColor=#ffffff;" vertex="1" parent="1">
          <mxGeometry x="358.62" y="812" width="5" height="5" as="geometry" />
        </mxCell>
        <mxCell id="oD4sQb2ByNEXu4j8s0dV-54" value="06 07 08 09 10" style="text;html=1;align=center;verticalAlign=middle;resizable=0;points=[];autosize=1;strokeColor=none;fillColor=none;" vertex="1" parent="1">
          <mxGeometry x="277.62" y="791" width="98" height="26" as="geometry" />
        </mxCell>
        <mxCell id="oD4sQb2ByNEXu4j8s0dV-55" value="" style="rounded=1;whiteSpace=wrap;html=1;fillColor=#60a917;strokeColor=#2D7600;fontColor=#ffffff;" vertex="1" parent="1">
          <mxGeometry x="291.37" y="812" width="5" height="5" as="geometry" />
        </mxCell>
        <mxCell id="oD4sQb2ByNEXu4j8s0dV-56" value="" style="rounded=1;whiteSpace=wrap;html=1;fillColor=#fa6800;strokeColor=#C73500;fontColor=#000000;" vertex="1" parent="1">
          <mxGeometry x="394.37" y="812" width="5" height="5" as="geometry" />
        </mxCell>
        <mxCell id="oD4sQb2ByNEXu4j8s0dV-57" value="" style="rounded=1;whiteSpace=wrap;html=1;fillColor=#f0a30a;strokeColor=#BD7000;fontColor=#000000;" vertex="1" parent="1">
          <mxGeometry x="411.87" y="812" width="5" height="5" as="geometry" />
        </mxCell>
        <mxCell id="oD4sQb2ByNEXu4j8s0dV-58" value="" style="rounded=1;whiteSpace=wrap;html=1;fillColor=#e3c800;strokeColor=#B09500;fontColor=#000000;" vertex="1" parent="1">
          <mxGeometry x="429.37" y="812" width="5" height="5" as="geometry" />
        </mxCell>
        <mxCell id="oD4sQb2ByNEXu4j8s0dV-59" value="" style="rounded=1;whiteSpace=wrap;html=1;fillColor=#6d8764;strokeColor=#3A5431;fontColor=#ffffff;" vertex="1" parent="1">
          <mxGeometry x="446.37" y="812" width="5" height="5" as="geometry" />
        </mxCell>
        <mxCell id="oD4sQb2ByNEXu4j8s0dV-60" value="11 12 13 14 15" style="text;html=1;align=center;verticalAlign=middle;resizable=0;points=[];autosize=1;strokeColor=none;fillColor=none;" vertex="1" parent="1">
          <mxGeometry x="365.25" y="791" width="97" height="26" as="geometry" />
        </mxCell>
        <mxCell id="oD4sQb2ByNEXu4j8s0dV-61" value="" style="rounded=1;whiteSpace=wrap;html=1;fillColor=#e51400;strokeColor=#B20000;fontColor=#ffffff;" vertex="1" parent="1">
          <mxGeometry x="379.12" y="812" width="5" height="5" as="geometry" />
        </mxCell>
        <mxCell id="oD4sQb2ByNEXu4j8s0dV-72" value="10" style="text;html=1;align=center;verticalAlign=middle;resizable=0;points=[];autosize=1;strokeColor=none;fillColor=none;" vertex="1" parent="1">
          <mxGeometry x="341.25" y="849" width="31" height="26" as="geometry" />
        </mxCell>
        <mxCell id="oD4sQb2ByNEXu4j8s0dV-73" value="15" style="text;html=1;align=center;verticalAlign=middle;resizable=0;points=[];autosize=1;strokeColor=none;fillColor=none;" vertex="1" parent="1">
          <mxGeometry x="433" y="849" width="31" height="26" as="geometry" />
        </mxCell>
        <mxCell id="oD4sQb2ByNEXu4j8s0dV-74" value="18" style="text;html=1;align=center;verticalAlign=middle;resizable=0;points=[];autosize=1;strokeColor=none;fillColor=none;" vertex="1" parent="1">
          <mxGeometry x="471" y="849" width="31" height="26" as="geometry" />
        </mxCell>
        <mxCell id="oD4sQb2ByNEXu4j8s0dV-85" value="" style="endArrow=classic;html=1;rounded=0;strokeWidth=1;" edge="1" parent="1">
          <mxGeometry width="50" height="50" relative="1" as="geometry">
            <mxPoint x="175.75" y="855" as="sourcePoint" />
            <mxPoint x="1348.5" y="855" as="targetPoint" />
            <Array as="points">
              <mxPoint x="761.75" y="854" />
            </Array>
          </mxGeometry>
        </mxCell>
        <mxCell id="oD4sQb2ByNEXu4j8s0dV-94" value="13" style="text;html=1;align=center;verticalAlign=middle;resizable=0;points=[];autosize=1;strokeColor=none;fillColor=none;" vertex="1" parent="1">
          <mxGeometry x="394.75" y="849" width="31" height="26" as="geometry" />
        </mxCell>
        <mxCell id="oD4sQb2ByNEXu4j8s0dV-96" value="" style="rounded=1;whiteSpace=wrap;html=1;opacity=10;fillColor=#60a917;strokeColor=#2D7600;fontColor=#ffffff;" vertex="1" parent="1">
          <mxGeometry x="194.59" y="895" width="126.5" height="20" as="geometry" />
        </mxCell>
        <mxCell id="oD4sQb2ByNEXu4j8s0dV-97" value="" style="rounded=1;whiteSpace=wrap;html=1;opacity=10;fillColor=#6a00ff;strokeColor=#3700CC;fontColor=#ffffff;" vertex="1" parent="1">
          <mxGeometry x="273.46" y="915" width="139.75" height="20" as="geometry" />
        </mxCell>
        <mxCell id="oD4sQb2ByNEXu4j8s0dV-98" value="" style="rounded=1;whiteSpace=wrap;html=1;opacity=10;fillColor=#a20025;strokeColor=#6F0000;fontColor=#ffffff;" vertex="1" parent="1">
          <mxGeometry x="353.27" y="935" width="132.13" height="20" as="geometry" />
        </mxCell>
        <mxCell id="oD4sQb2ByNEXu4j8s0dV-109" value="" style="rounded=1;whiteSpace=wrap;html=1;fillColor=#1ba1e2;strokeColor=#006EAF;fontColor=#ffffff;" vertex="1" parent="1">
          <mxGeometry x="308.25" y="849" width="5" height="5" as="geometry" />
        </mxCell>
        <mxCell id="oD4sQb2ByNEXu4j8s0dV-110" value="" style="rounded=1;whiteSpace=wrap;html=1;fillColor=#0050ef;strokeColor=#001DBC;fontColor=#ffffff;" vertex="1" parent="1">
          <mxGeometry x="318.5" y="849" width="5" height="5" as="geometry" />
        </mxCell>
        <mxCell id="oD4sQb2ByNEXu4j8s0dV-111" value="" style="rounded=1;whiteSpace=wrap;html=1;fillColor=#6a00ff;strokeColor=#3700CC;fontColor=#ffffff;" vertex="1" parent="1">
          <mxGeometry x="343.25" y="849" width="5" height="5" as="geometry" />
        </mxCell>
        <mxCell id="oD4sQb2ByNEXu4j8s0dV-112" value="" style="rounded=1;whiteSpace=wrap;html=1;fillColor=#d80073;strokeColor=#A50040;fontColor=#ffffff;" vertex="1" parent="1">
          <mxGeometry x="360.25" y="849" width="5" height="5" as="geometry" />
        </mxCell>
        <mxCell id="oD4sQb2ByNEXu4j8s0dV-113" value="" style="rounded=1;whiteSpace=wrap;html=1;fillColor=#60a917;strokeColor=#2D7600;fontColor=#ffffff;" vertex="1" parent="1">
          <mxGeometry x="293" y="849" width="5" height="5" as="geometry" />
        </mxCell>
        <mxCell id="oD4sQb2ByNEXu4j8s0dV-115" value="" style="rounded=1;whiteSpace=wrap;html=1;fillColor=#fa6800;strokeColor=#C73500;fontColor=#000000;" vertex="1" parent="1">
          <mxGeometry x="394.37" y="849" width="5" height="5" as="geometry" />
        </mxCell>
        <mxCell id="oD4sQb2ByNEXu4j8s0dV-118" value="" style="rounded=1;whiteSpace=wrap;html=1;fillColor=#6d8764;strokeColor=#3A5431;fontColor=#ffffff;" vertex="1" parent="1">
          <mxGeometry x="454" y="849" width="5" height="5" as="geometry" />
        </mxCell>
        <mxCell id="oD4sQb2ByNEXu4j8s0dV-119" value="" style="rounded=1;whiteSpace=wrap;html=1;fillColor=#e51400;strokeColor=#B20000;fontColor=#ffffff;" vertex="1" parent="1">
          <mxGeometry x="379.12" y="849" width="5" height="5" as="geometry" />
        </mxCell>
        <mxCell id="oD4sQb2ByNEXu4j8s0dV-120" value="" style="rounded=1;whiteSpace=wrap;html=1;fillColor=#e3c800;strokeColor=#B09500;fontColor=#000000;shadow=1;" vertex="1" parent="1">
          <mxGeometry x="511" y="849" width="5" height="5" as="geometry" />
        </mxCell>
        <mxCell id="oD4sQb2ByNEXu4j8s0dV-122" value="" style="endArrow=none;html=1;rounded=0;strokeWidth=0.3;entryX=0.5;entryY=0;entryDx=0;entryDy=0;" edge="1" parent="1" target="oD4sQb2ByNEXu4j8s0dV-5">
          <mxGeometry width="50" height="50" relative="1" as="geometry">
            <mxPoint x="241.37" y="817" as="sourcePoint" />
            <mxPoint x="291.37" y="767" as="targetPoint" />
          </mxGeometry>
        </mxCell>
        <mxCell id="oD4sQb2ByNEXu4j8s0dV-124" value="" style="endArrow=none;html=1;rounded=0;strokeWidth=0.3;entryX=0.176;entryY=-0.014;entryDx=0;entryDy=0;entryPerimeter=0;" edge="1" parent="1" target="oD4sQb2ByNEXu4j8s0dV-24">
          <mxGeometry width="50" height="50" relative="1" as="geometry">
            <mxPoint x="223.6199999999999" y="817" as="sourcePoint" />
            <mxPoint x="320.87" y="848" as="targetPoint" />
          </mxGeometry>
        </mxCell>
        <mxCell id="oD4sQb2ByNEXu4j8s0dV-125" value="" style="endArrow=none;html=1;rounded=0;strokeWidth=0.3;entryX=0.804;entryY=0.007;entryDx=0;entryDy=0;entryPerimeter=0;" edge="1" parent="1" target="oD4sQb2ByNEXu4j8s0dV-24">
          <mxGeometry width="50" height="50" relative="1" as="geometry">
            <mxPoint x="259.3699999999999" y="817" as="sourcePoint" />
            <mxPoint x="356.62" y="848" as="targetPoint" />
          </mxGeometry>
        </mxCell>
        <mxCell id="oD4sQb2ByNEXu4j8s0dV-126" value="" style="endArrow=none;dashed=1;html=1;dashPattern=1 3;strokeWidth=0.3;rounded=0;entryX=0.855;entryY=0.984;entryDx=0;entryDy=0;entryPerimeter=0;" edge="1" parent="1" target="oD4sQb2ByNEXu4j8s0dV-12">
          <mxGeometry width="50" height="50" relative="1" as="geometry">
            <mxPoint x="276.23" y="855" as="sourcePoint" />
            <mxPoint x="277" y="818" as="targetPoint" />
          </mxGeometry>
        </mxCell>
        <mxCell id="oD4sQb2ByNEXu4j8s0dV-127" value="" style="endArrow=none;dashed=1;html=1;dashPattern=1 3;strokeWidth=0.3;rounded=0;entryX=0.855;entryY=0.984;entryDx=0;entryDy=0;entryPerimeter=0;" edge="1" parent="1">
          <mxGeometry width="50" height="50" relative="1" as="geometry">
            <mxPoint x="327.31" y="853.9999999999999" as="sourcePoint" />
            <mxPoint x="327.36999999999995" y="815.5840000000001" as="targetPoint" />
          </mxGeometry>
        </mxCell>
        <mxCell id="oD4sQb2ByNEXu4j8s0dV-128" value="" style="endArrow=none;dashed=1;html=1;dashPattern=1 3;strokeWidth=0.3;rounded=0;entryX=0.855;entryY=0.984;entryDx=0;entryDy=0;entryPerimeter=0;fontStyle=1" edge="1" parent="1">
          <mxGeometry width="50" height="50" relative="1" as="geometry">
            <mxPoint x="361.02000000000004" y="853.9999999999999" as="sourcePoint" />
            <mxPoint x="361.08" y="815.5840000000001" as="targetPoint" />
          </mxGeometry>
        </mxCell>
        <mxCell id="oD4sQb2ByNEXu4j8s0dV-129" value="" style="endArrow=none;dashed=1;html=1;dashPattern=1 3;strokeWidth=0.3;rounded=0;entryX=0.855;entryY=0.984;entryDx=0;entryDy=0;entryPerimeter=0;fontStyle=1" edge="1" parent="1">
          <mxGeometry width="50" height="50" relative="1" as="geometry">
            <mxPoint x="414.27" y="854" as="sourcePoint" />
            <mxPoint x="414.3299999999999" y="815.5840000000001" as="targetPoint" />
          </mxGeometry>
        </mxCell>
        <mxCell id="oD4sQb2ByNEXu4j8s0dV-130" value="" style="endArrow=none;dashed=1;html=1;dashPattern=1 3;strokeWidth=0.3;rounded=0;entryX=0.855;entryY=0.984;entryDx=0;entryDy=0;entryPerimeter=0;fontStyle=1" edge="1" parent="1">
          <mxGeometry width="50" height="50" relative="1" as="geometry">
            <mxPoint x="448.82" y="854" as="sourcePoint" />
            <mxPoint x="448.87999999999994" y="815.5840000000001" as="targetPoint" />
          </mxGeometry>
        </mxCell>
        <mxCell id="oD4sQb2ByNEXu4j8s0dV-131" value="" style="endArrow=none;dashed=1;html=1;dashPattern=1 3;strokeWidth=0.3;rounded=0;entryX=0.855;entryY=0.984;entryDx=0;entryDy=0;entryPerimeter=0;fontStyle=1" edge="1" parent="1">
          <mxGeometry width="50" height="50" relative="1" as="geometry">
            <mxPoint x="487.62" y="855" as="sourcePoint" />
            <mxPoint x="487.67999999999995" y="816.5840000000001" as="targetPoint" />
          </mxGeometry>
        </mxCell>
        <mxCell id="oD4sQb2ByNEXu4j8s0dV-135" value="" style="endArrow=none;html=1;rounded=0;strokeWidth=0.3;entryX=0.619;entryY=-0.012;entryDx=0;entryDy=0;entryPerimeter=0;" edge="1" parent="1" target="oD4sQb2ByNEXu4j8s0dV-21">
          <mxGeometry width="50" height="50" relative="1" as="geometry">
            <mxPoint x="278.8699999999999" y="817" as="sourcePoint" />
            <mxPoint x="330" y="848" as="targetPoint" />
          </mxGeometry>
        </mxCell>
        <mxCell id="oD4sQb2ByNEXu4j8s0dV-136" value="" style="rounded=1;whiteSpace=wrap;html=1;fillColor=#f8cecc;strokeColor=#b85450;" vertex="1" parent="1">
          <mxGeometry x="246.59" y="902.5" width="5" height="5" as="geometry" />
        </mxCell>
        <mxCell id="oD4sQb2ByNEXu4j8s0dV-137" value="" style="rounded=1;whiteSpace=wrap;html=1;fillColor=#fff2cc;strokeColor=#d6b656;" vertex="1" parent="1">
          <mxGeometry x="264.09" y="902.5" width="5" height="5" as="geometry" />
        </mxCell>
        <mxCell id="oD4sQb2ByNEXu4j8s0dV-138" value="" style="rounded=1;whiteSpace=wrap;html=1;fillColor=#dae8fc;strokeColor=#6c8ebf;" vertex="1" parent="1">
          <mxGeometry x="281.59" y="902.5" width="5" height="5" as="geometry" />
        </mxCell>
        <mxCell id="oD4sQb2ByNEXu4j8s0dV-139" value="" style="rounded=1;whiteSpace=wrap;html=1;fillColor=#e1d5e7;strokeColor=#9673a6;arcSize=0;" vertex="1" parent="1">
          <mxGeometry x="227.22" y="902.5" width="5" height="5" as="geometry" />
        </mxCell>
        <mxCell id="oD4sQb2ByNEXu4j8s0dV-140" value="" style="rounded=1;whiteSpace=wrap;html=1;fillColor=#1ba1e2;strokeColor=#006EAF;fontColor=#ffffff;" vertex="1" parent="1">
          <mxGeometry x="324.46" y="922.5" width="5" height="5" as="geometry" />
        </mxCell>
        <mxCell id="oD4sQb2ByNEXu4j8s0dV-141" value="" style="rounded=1;whiteSpace=wrap;html=1;fillColor=#0050ef;strokeColor=#001DBC;fontColor=#ffffff;" vertex="1" parent="1">
          <mxGeometry x="341.96" y="922.5" width="5" height="5" as="geometry" />
        </mxCell>
        <mxCell id="oD4sQb2ByNEXu4j8s0dV-142" value="" style="rounded=1;whiteSpace=wrap;html=1;fillColor=#6a00ff;strokeColor=#3700CC;fontColor=#ffffff;" vertex="1" parent="1">
          <mxGeometry x="359.46" y="922.5" width="5" height="5" as="geometry" />
        </mxCell>
        <mxCell id="oD4sQb2ByNEXu4j8s0dV-143" value="" style="rounded=1;whiteSpace=wrap;html=1;fillColor=#d80073;strokeColor=#A50040;fontColor=#ffffff;" vertex="1" parent="1">
          <mxGeometry x="376.46" y="922.5" width="5" height="5" as="geometry" />
        </mxCell>
        <mxCell id="oD4sQb2ByNEXu4j8s0dV-144" value="" style="rounded=1;whiteSpace=wrap;html=1;fillColor=#60a917;strokeColor=#2D7600;fontColor=#ffffff;" vertex="1" parent="1">
          <mxGeometry x="309.21" y="922.5" width="5" height="5" as="geometry" />
        </mxCell>
        <mxCell id="oD4sQb2ByNEXu4j8s0dV-145" value="" style="rounded=1;whiteSpace=wrap;html=1;fillColor=#fa6800;strokeColor=#C73500;fontColor=#000000;" vertex="1" parent="1">
          <mxGeometry x="398.46" y="942.5" width="5" height="5" as="geometry" />
        </mxCell>
        <mxCell id="oD4sQb2ByNEXu4j8s0dV-148" value="" style="rounded=1;whiteSpace=wrap;html=1;fillColor=#6d8764;strokeColor=#3A5431;fontColor=#ffffff;" vertex="1" parent="1">
          <mxGeometry x="450.46" y="942.5" width="5" height="5" as="geometry" />
        </mxCell>
        <mxCell id="oD4sQb2ByNEXu4j8s0dV-149" value="" style="rounded=1;whiteSpace=wrap;html=1;fillColor=#e51400;strokeColor=#B20000;fontColor=#ffffff;" vertex="1" parent="1">
          <mxGeometry x="383.21" y="942.5" width="5" height="5" as="geometry" />
        </mxCell>
        <mxCell id="oD4sQb2ByNEXu4j8s0dV-153" value="" style="rounded=1;whiteSpace=wrap;html=1;shadow=0;glass=0;sketch=0;opacity=10;fillColor=#0050ef;strokeColor=#001DBC;fontColor=#ffffff;" vertex="1" parent="1">
          <mxGeometry x="192.25" y="870" width="379.75" height="19" as="geometry" />
        </mxCell>
        <mxCell id="oD4sQb2ByNEXu4j8s0dV-155" value="" style="rounded=1;whiteSpace=wrap;html=1;fillColor=#f5f5f5;strokeColor=#666666;fontColor=#333333;sketch=0;shadow=1;glass=0;" vertex="1" parent="1">
          <mxGeometry x="327" y="877" width="5" height="5" as="geometry" />
        </mxCell>
        <mxCell id="oD4sQb2ByNEXu4j8s0dV-156" value="" style="rounded=1;whiteSpace=wrap;html=1;fillColor=#e3c800;strokeColor=#B09500;fontColor=#000000;shadow=1;" vertex="1" parent="1">
          <mxGeometry x="511" y="877" width="5" height="5" as="geometry" />
        </mxCell>
        <mxCell id="oD4sQb2ByNEXu4j8s0dV-157" value="" style="rounded=1;whiteSpace=wrap;html=1;fillColor=#f0a30a;strokeColor=#BD7000;fontColor=#000000;gradientColor=default;opacity=50;" vertex="1" parent="1">
          <mxGeometry x="428" y="849" width="5" height="5" as="geometry" />
        </mxCell>
        <mxCell id="oD4sQb2ByNEXu4j8s0dV-158" value="未聚合的数据记录下来" style="text;html=1;align=center;verticalAlign=middle;resizable=0;points=[];autosize=1;strokeColor=none;fillColor=none;" vertex="1" parent="1">
          <mxGeometry x="56" y="866.5" width="138" height="26" as="geometry" />
        </mxCell>
        <mxCell id="oD4sQb2ByNEXu4j8s0dV-159" value="产生日志的时间轴" style="text;html=1;align=center;verticalAlign=middle;resizable=0;points=[];autosize=1;strokeColor=none;fillColor=none;" vertex="1" parent="1">
          <mxGeometry x="568" y="794" width="114" height="26" as="geometry" />
        </mxCell>
        <mxCell id="oD4sQb2ByNEXu4j8s0dV-160" value="日志到达计算任务的时间轴" style="text;html=1;align=center;verticalAlign=middle;resizable=0;points=[];autosize=1;strokeColor=none;fillColor=none;" vertex="1" parent="1">
          <mxGeometry x="568" y="832" width="162" height="26" as="geometry" />
        </mxCell>
        <mxCell id="oD4sQb2ByNEXu4j8s0dV-161" value="聚合窗口" style="text;html=1;align=center;verticalAlign=middle;resizable=0;points=[];autosize=1;strokeColor=none;fillColor=none;fontSize=2;" vertex="1" parent="1">
          <mxGeometry x="89.5" y="896.5" width="66" height="26" as="geometry" />
        </mxCell>
      </root>
    </mxGraphModel>
  </diagram>
</mxfile>
